<?xml version="1.0" encoding="UTF-8"?>
<svg width="35px" height="35px" viewBox="0 0 35 35" version="1.1" xmlns="http://www.w3.org/2000/svg" xmlns:xlink="http://www.w3.org/1999/xlink">
    <!-- Generator: Sketch 47.1 (45422) - http://www.bohemiancoding.com/sketch -->
    <title>ic_nav_add_person</title>
    <desc>Created with Sketch.</desc>
    <defs></defs>
    <g id="Page-1" stroke="none" stroke-width="1" fill="none" fill-rule="evenodd">
        <g id="whipple_UI_02_1a" transform="translate(-1388.000000, -360.000000)" fill-rule="nonzero" fill="#FFFFFF">
            <g id="Nav-Bar" transform="translate(1370.000000, 250.000000)">
                <path d="M31.9388265,110 C28.6725968,110.060649 26.5861423,111.392171 25.690387,113.462508 C24.8355963,115.433601 25.0267632,117.922968 25.6466916,120.497795 C25.3135147,120.892013 25.0486109,121.421314 25.1441948,122.218021 C25.2479716,123.086405 25.4855647,123.703923 25.8214732,124.136736 C26.0071785,124.373819 26.2502339,124.395873 26.4769039,124.511657 C26.599797,125.250473 26.8046192,125.989288 27.1104869,126.606805 C27.2852684,126.962429 27.4846284,127.290485 27.6785268,127.555135 C27.7659176,127.673677 27.8915422,127.742596 27.9843945,127.84184 C27.9898568,128.71298 27.9925876,129.438012 27.9188514,130.356018 C27.6921815,130.910129 27.1623753,131.356727 26.3021223,131.78954 C25.4145601,132.236138 24.2593633,132.649653 23.0905119,133.1569 C21.9216604,133.664146 20.7200375,134.281664 19.7696629,135.252048 C18.8192884,136.222432 18.1474723,137.553954 18.0436954,139.310019 L18,140.059861 L35.5218477,140.059861 L35.0630462,138.648393 L19.6167291,138.648393 C19.8133583,137.650441 20.1820383,136.84822 20.7746567,136.244486 C21.5202089,135.483617 22.5361265,134.912965 23.6367041,134.436043 C24.7372817,133.959121 25.8952093,133.581443 26.9138577,133.068683 C27.9325061,132.555923 28.8746882,131.880513 29.2734082,130.797101 L29.3171036,130.620668 C29.4236113,129.438012 29.3826467,128.599953 29.3826467,127.57719 L29.3826467,127.15816 L29.011236,126.959672 C29.0740482,126.992754 28.9238452,126.896266 28.7927591,126.717076 C28.6616729,126.537886 28.500546,126.281506 28.3558052,125.989288 C28.0663237,125.404852 27.8287299,124.652253 27.7659176,124.048519 L27.7003745,123.47511 L27.1104869,123.431002 C27.1050253,123.431002 27.0394822,123.439272 26.9138577,123.276623 C26.7882338,123.113973 26.6243761,122.755592 26.5424469,122.063642 C26.4741731,121.476449 26.7691169,121.272448 26.7390762,121.291745 L27.1978777,121.005041 L27.0667915,120.497795 C26.40863,117.939509 26.2939293,115.615548 26.9794007,114.035917 C27.6621414,112.461799 29.0549313,111.472118 31.9606742,111.411468 C31.9688672,111.411468 31.9743288,111.411468 31.9825218,111.411468 C33.3889671,111.416982 34.3011078,111.833254 34.5605493,112.293636 L34.7353308,112.58034 L35.0630462,112.624449 C36.0352684,112.762288 36.5923845,113.156506 36.9856429,113.705104 C37.3789014,114.253702 37.5973783,115.020085 37.6629213,115.866415 C37.7940075,117.559074 37.3106275,119.530167 37.0074906,120.453686 L36.8327091,121.005041 L37.3133583,121.291745 C37.2833176,121.272448 37.5809929,121.476449 37.5099875,122.063642 C37.428059,122.755592 37.2642013,123.113973 37.1385768,123.276623 C37.0129529,123.439272 36.9474098,123.431002 36.9419476,123.431002 L36.3520599,123.47511 L36.2865169,124.048519 C36.2209738,124.657766 35.9779184,125.404852 35.6966292,125.989288 C35.5546192,126.281506 35.4098785,126.537886 35.2815231,126.717076 C35.1531677,126.896266 35.0193508,126.99551 35.0848939,126.959672 L34.7134831,127.15816 L34.7134831,127.57719 C34.7134831,128.597196 34.6725186,129.438012 34.7790262,130.620668 L34.7790262,130.708885 L34.8227216,130.797101 C35.0466608,131.406348 35.4399192,132.018352 36.0898876,132.407057 L36.8108614,131.194077 C36.5159176,131.017643 36.3220192,130.714399 36.1772784,130.356018 C36.1035423,129.438012 36.1062738,128.71298 36.1117353,127.84184 C36.2018569,127.742596 36.332943,127.673677 36.417603,127.555135 C36.6087706,127.287729 36.7917445,126.959672 36.9637953,126.606805 C37.2614699,125.989288 37.477216,125.247716 37.5973783,124.511657 C37.8158552,124.395873 38.0507182,124.368305 38.2309613,124.136736 C38.5668697,123.703923 38.8044635,123.086405 38.9082397,122.218021 C39.0010927,121.446125 38.744382,120.936122 38.4275905,120.541903 C38.7689605,119.422653 39.2059143,117.61421 39.0611735,115.756144 C38.9819758,114.741651 38.7252651,113.729915 38.1217228,112.889099 C37.570069,112.117202 36.6743137,111.55482 35.5436954,111.323251 C34.809067,110.361138 33.4872817,110 31.9606742,110 L31.9388265,110 Z M44.6104869,128.062382 C39.9842388,128.062382 36.2209738,131.861216 36.2209738,136.531191 C36.2209738,141.201166 39.9842388,145 44.6104869,145 C49.2367357,145 53,141.201166 53,136.531191 C53,131.861216 49.2367357,128.062382 44.6104869,128.062382 Z M44.6104869,129.47385 C48.4802589,129.47385 51.6017478,132.624843 51.6017478,136.531191 C51.6017478,140.437539 48.4802589,143.588532 44.6104869,143.588532 C40.7407149,143.588532 37.619226,140.437539 37.619226,136.531191 C37.619226,132.624843 40.7407149,129.47385 44.6104869,129.47385 Z M43.9113608,132.296786 L43.9113608,135.825457 L40.4157303,135.825457 L40.4157303,137.236925 L43.9113608,137.236925 L43.9113608,140.765595 L45.309613,140.765595 L45.309613,137.236925 L48.8052434,137.236925 L48.8052434,135.825457 L45.309613,135.825457 L45.309613,132.296786 L43.9113608,132.296786 Z" id="ic_nav_add_person"></path>
            </g>
        </g>
    </g>
</svg>
