<?xml version="1.0" encoding="UTF-8"?>
<svg width="35px" height="35px" viewBox="0 0 35 35" version="1.1" xmlns="http://www.w3.org/2000/svg" xmlns:xlink="http://www.w3.org/1999/xlink">
    <!-- Generator: Sketch 47.1 (45422) - http://www.bohemiancoding.com/sketch -->
    <title>ic_nav_video_off</title>
    <desc>Created with Sketch.</desc>
    <defs></defs>
    <g id="Page-1" stroke="none" stroke-width="1" fill="none" fill-rule="evenodd">
        <g id="whipple_UI_02_1a" transform="translate(-1390.000000, -435.000000)" fill-rule="nonzero" fill="#FFFFFF">
            <g id="Nav-Bar" transform="translate(1370.000000, 250.000000)">
                <path d="M20.6613074,185.002119 C20.6312635,185.007582 20.6012202,185.015777 20.5739073,185.023972 C20.3117069,185.070408 20.1014005,185.261616 20.0276565,185.515649 C19.9539124,185.772415 20.0303877,186.045569 20.2243068,186.22585 L53.7859573,219.791037 C54.0645456,220.069654 54.5124712,220.069654 54.7910588,219.791037 C55.0696471,219.51242 55.0696471,219.064447 54.7910588,218.785829 L45.9636455,209.957486 L45.9636455,206.504817 L53.9607575,210.809727 L54.9877091,211.377888 L54.9877091,193.633792 L53.9607575,194.201952 L45.9636455,198.506862 L45.9636455,194.813818 C45.9636455,192.855302 44.4259493,191.317444 42.4676403,191.317444 L27.3255675,191.317444 L21.2294083,185.220643 C21.084652,185.064945 20.8743456,184.98573 20.6613074,185.002119 Z M23.5236617,191.317444 C21.636365,191.317444 20.0276565,192.926322 20.0276565,194.813818 L20.0276565,210.197862 C20.0276565,212.156377 21.5653527,213.694235 23.5236617,213.694235 L42.4020902,213.694235 C43.3798795,213.694235 44.2211057,213.270846 44.8492938,212.71088 L43.8660424,211.661968 C43.5164418,212.082626 42.9619971,212.295686 42.4020902,212.295686 L23.5236617,212.295686 C22.335566,212.295686 21.4260586,211.386083 21.4260586,210.197862 L21.4260586,194.813818 C21.4260586,193.625597 22.335566,192.715994 23.5236617,192.715994 L24.8565138,192.715994 L23.5236617,191.317444 Z M28.7239696,192.715994 L42.4020902,192.715994 C43.5901859,192.715994 44.4996933,193.625597 44.4996933,194.813818 L44.4996933,208.49338 L28.7239696,192.715994 Z M53.589307,195.971992 L53.589307,209.039688 L45.9636455,204.931449 L45.9636455,200.080231 L53.589307,195.971992 Z" id="ic_nav_video_off"></path>
            </g>
        </g>
    </g>
</svg>
