<?xml version="1.0" encoding="UTF-8"?>
<svg width="30px" height="30px" viewBox="0 0 30 30" version="1.1" xmlns="http://www.w3.org/2000/svg" xmlns:xlink="http://www.w3.org/1999/xlink">
    <!-- Generator: Sketch 47.1 (45422) - http://www.bohemiancoding.com/sketch -->
    <title>ic_nav_info</title>
    <desc>Created with Sketch.</desc>
    <defs></defs>
    <g id="Page-1" stroke="none" stroke-width="1" fill="none" fill-rule="evenodd">
        <g id="whipple_UI_02_1a" transform="translate(-1390.000000, -580.000000)" fill-rule="nonzero" fill="#FFFFFF">
            <g id="Nav-Bar" transform="translate(1370.000000, 250.000000)">
                <path d="M35,330 C26.721875,330 20,336.721875 20,345 C20,353.278125 26.721875,360 35,360 C43.278125,360 50,353.278125 50,345 C50,336.721875 43.278125,330 35,330 Z M35,331.2 C42.6289064,331.2 48.8,337.371094 48.8,345 C48.8,352.628906 42.6289064,358.8 35,358.8 C27.3710936,358.8 21.2,352.628906 21.2,345 C21.2,337.371094 27.3710936,331.2 35,331.2 Z M34.26875,337.74375 C34.1398436,337.74375 34.0625,337.821094 34.0625,337.95 L34.0625,339.525 C34.0625,339.653906 34.1398436,339.75 34.26875,339.75 L35.73125,339.75 C35.8601564,339.75 35.9375,339.653906 35.9375,339.525 L35.9375,337.95 C35.9375,337.821094 35.8601564,337.74375 35.73125,337.74375 L34.26875,337.74375 Z M34.23125,342.075 C34.1539064,342.105469 34.1,342.185156 34.1,342.28125 L34.1,352.1625 C34.1,352.291406 34.1773436,352.36875 34.30625,352.36875 L35.69375,352.36875 C35.8226564,352.36875 35.9,352.291406 35.9,352.1625 L35.9,342.28125 C35.9,342.152344 35.8226564,342.075 35.69375,342.075 L34.30625,342.075 C34.2734378,342.075 34.2570314,342.065625 34.23125,342.075 Z" id="ic_nav_info"></path>
            </g>
        </g>
    </g>
</svg>
