<?xml version="1.0" encoding="UTF-8"?>
<svg width="30px" height="30px" viewBox="0 0 30 30" version="1.1" xmlns="http://www.w3.org/2000/svg" xmlns:xlink="http://www.w3.org/1999/xlink">
    <!-- Generator: Sketch 47.1 (45422) - http://www.bohemiancoding.com/sketch -->
    <title>ic_nav_settings</title>
    <desc>Created with Sketch.</desc>
    <defs></defs>
    <g id="Page-1" stroke="none" stroke-width="1" fill="none" fill-rule="evenodd">
        <g id="whipple_UI_02_1a" transform="translate(-1390.000000, -510.000000)" fill-rule="nonzero" fill="#FFFFFF">
            <g id="Nav-Bar" transform="translate(1370.000000, 250.000000)">
                <path d="M32.65625,260 L32.58125,260.50625 L31.94375,264.44375 C31.15625,264.66875 30.3992186,264.957031 29.69375,265.34375 L26.45,263.0375 L26.0375,262.7375 L22.775,266 L23.075,266.4125 L25.34375,269.675 C24.9546878,270.380469 24.6570314,271.135156 24.425,271.925 L20.50625,272.58125 L20,272.65625 L20,277.26875 L20.4875,277.3625 L24.40625,278.05625 C24.6359378,278.846094 24.9523436,279.598438 25.34375,280.30625 L23.0375,283.55 L22.7375,283.9625 L26,287.225 L26.4125,286.925 L29.65625,284.6375 C30.3664064,285.03125 31.1304686,285.326563 31.925,285.55625 L32.58125,289.49375 L32.65625,290 L37.26875,290 L37.3625,289.5125 L38.05625,285.575 C38.8460936,285.342969 39.5820314,285.010156 40.2875,284.61875 L43.5875,286.925 L44,287.225 L47.2625,283.9625 L46.9625,283.53125 L44.61875,280.2875 C45.003125,279.589063 45.3125,278.836719 45.5375,278.05625 L49.5125,277.3625 L50,277.26875 L50,272.65625 L49.49375,272.58125 L45.55625,271.94375 C45.3289064,271.158594 45.0054686,270.415625 44.61875,269.7125 L46.925,266.4125 L47.225,266 L43.9625,262.7375 L43.53125,263.0375 L40.30625,265.3625 C39.6007814,264.971094 38.8460936,264.673438 38.05625,264.44375 L37.3625,260.4875 L37.26875,260 L32.65625,260 Z M33.6875,261.2 L36.275,261.2 L36.93125,264.96875 L36.9875,265.34375 L37.38125,265.4375 C38.3445314,265.676563 39.2375,266.063281 40.0625,266.5625 L40.4,266.76875 L40.71875,266.54375 L43.8125,264.3125 L45.65,266.13125 L43.45625,269.28125 L43.23125,269.6 L43.41875,269.9375 C43.9132814,270.760156 44.2859378,271.6625 44.525,272.61875 L44.6375,272.99375 L45.0125,273.06875 L48.8,273.6875 L48.8,276.275 L45.0125,276.93125 L44.61875,277.00625 L44.525,277.38125 C44.2882814,278.3375 43.9132814,279.239844 43.41875,280.0625 L43.23125,280.4 L43.45625,280.71875 L45.6875,283.83125 L43.86875,285.65 L40.71875,283.45625 L40.4,283.23125 L40.0625,283.4375 C39.2421878,283.936719 38.3398436,284.31875 37.38125,284.5625 L37.00625,284.65625 L36.93125,285.03125 L36.275,288.8 L33.66875,288.8 L33.05,285.05 L32.99375,284.65625 L32.6,284.5625 C31.6367186,284.323438 30.7296878,283.955469 29.9,283.45625 L29.58125,283.25 L29.24375,283.475 L26.13125,285.65 L24.3125,283.8125 L26.50625,280.7375 L26.73125,280.41875 L26.54375,280.08125 C26.0398436,279.249219 25.6414064,278.349219 25.4,277.38125 L25.30625,277.00625 L24.93125,276.93125 L21.2,276.275 L21.2,273.6875 L24.93125,273.06875 L25.325,272.99375 L25.41875,272.61875 C25.6625,271.648438 26.0421878,270.732031 26.54375,269.9 L26.75,269.5625 L26.525,269.24375 L24.35,266.13125 L26.16875,264.3125 L29.2625,266.50625 L29.58125,266.75 L29.91875,266.54375 C30.7460936,266.046875 31.6554686,265.674219 32.61875,265.4375 L33.0125,265.34375 L33.06875,264.95 L33.6875,261.2 Z M35,269.6 C32.0257814,269.6 29.6,272.025781 29.6,275 C29.6,277.974219 32.0257814,280.4 35,280.4 C37.9742186,280.4 40.4,277.974219 40.4,275 C40.4,272.025781 37.9742186,269.6 35,269.6 Z M35,270.8 C37.3273436,270.8 39.2,272.672656 39.2,275 C39.2,277.327344 37.3273436,279.2 35,279.2 C32.6726564,279.2 30.8,277.327344 30.8,275 C30.8,272.672656 32.6726564,270.8 35,270.8 Z" id="ic_nav_settings"></path>
            </g>
        </g>
    </g>
</svg>
