<?xml version="1.0" encoding="UTF-8"?>
<svg width="42px" height="30px" viewBox="0 0 42 30" version="1.1" xmlns="http://www.w3.org/2000/svg" xmlns:xlink="http://www.w3.org/1999/xlink">
    <!-- Generator: Sketch 47.1 (45422) - http://www.bohemiancoding.com/sketch -->
    <title>ic_nav_end_call</title>
    <desc>Created with Sketch.</desc>
    <defs></defs>
    <g id="Page-1" stroke="none" stroke-width="1" fill="none" fill-rule="evenodd">
        <g id="whipple_UI_02_1a" transform="translate(-1384.000000, -290.000000)" fill-rule="nonzero" fill="#FFFFFF">
            <g id="Nav-Bar" transform="translate(1370.000000, 250.000000)">
                <path d="M35,40 C27.607625,40 22.8362796,41.0944808 19.7659301,42.3573433 C16.6955806,43.6202058 15.2691696,45.1356408 14.8590761,45.5285313 C14.3277383,46.0371841 14.2136254,46.647568 14.1173424,47.2965388 C14.0210594,47.9455096 13.9889654,48.6541162 14.0032295,49.373246 C14.0353235,50.8115065 14.2029271,52.2252103 14.31704,52.8811974 C14.5844923,54.4282037 15.775545,55.4700659 17.0557491,55.2385407 C17.8188795,55.1017304 24.3661062,53.7687088 25.3574614,53.5266604 C26.4201381,53.2635639 26.9443434,52.3479888 27.240324,51.3657624 C27.4079275,50.8150143 27.6539832,49.6223108 27.896473,48.4471469 C28.0747749,47.587699 28.1639253,47.1632371 28.2388117,46.7913938 C28.7879804,46.6615999 30.5175035,46.2862488 35,46.2862488 C39.5110247,46.2862488 41.2405487,46.7001875 41.7611883,46.847521 C41.8325089,47.1983162 41.9216593,47.6438262 42.103527,48.5032741 C42.3460168,49.6538821 42.5920725,50.8220297 42.759676,51.3657624 C43.0556566,52.344481 43.5798628,53.2775957 44.6710668,53.5266604 C45.1061227,53.6248831 46.9497587,54.0037418 48.8361871,54.3966324 C50.7226154,54.7895229 52.5056292,55.1613662 52.9727791,55.2385407 C54.2387191,55.44551 55.4119419,54.4632837 55.68296,52.909261 C55.7970729,52.2532739 55.9646765,50.8395701 55.9967705,49.4013096 C56.0110346,48.6821798 55.9789406,47.9455096 55.8826576,47.2965388 C55.7863746,46.647568 55.6758284,46.0652477 55.1409239,45.5565949 C54.7308304,45.1637044 53.3044194,43.6202058 50.2340699,42.3573433 C47.1637204,41.0944808 42.3888092,40 35,40 Z M35,41.7960711 C42.2033757,41.7960711 46.7215329,42.8905519 49.5208644,44.04116 C52.3201958,45.191768 53.3365143,46.2932652 53.8856821,46.8194574 C53.8321915,46.7668379 54.0140591,47.0930781 54.0853797,47.5771749 C54.1567002,48.0612727 54.1852285,48.6856876 54.1709643,49.3451824 C54.1424361,50.6606644 53.9748326,52.0778767 53.8856821,52.6005613 C53.743041,53.4038819 53.1475142,53.4529937 53.2580613,53.4705332 C53.069062,53.4389619 51.1184447,53.049579 49.2355822,52.6566885 C47.3527196,52.2637979 45.405669,51.8638919 45.0704619,51.7867166 C45.1096885,51.7937329 44.6888967,51.4604773 44.4998975,50.8325538 C44.4214454,50.5729658 44.1432948,49.2820397 43.9008049,48.1384471 C43.658315,46.9948555 43.4443533,45.9494855 43.4443533,45.9494855 L43.3302405,45.4443405 L42.8452607,45.2759588 C42.8452607,45.2759588 40.4738526,44.4901777 35,44.4901777 C29.5404115,44.4901777 27.1832675,45.1637044 27.1832675,45.1637044 L26.6697595,45.3040225 L26.5556467,45.8372311 C26.5556467,45.8372311 26.3381192,46.9141723 26.0991951,48.0823199 C25.860271,49.2504675 25.5785556,50.5799813 25.5001025,50.8325538 C25.3111033,51.453461 24.8831799,51.7902243 24.9010099,51.7867166 C24.3090497,51.9305423 17.1306355,53.3968665 16.7134105,53.4705332 C16.8168251,53.4529937 16.2819214,53.414406 16.1428461,52.6005613 C16.0501298,52.0778767 15.8575639,50.6606644 15.8290357,49.3451824 C15.8147715,48.6891953 15.8432998,48.0332091 15.9146203,47.5491113 C15.9859409,47.0650145 16.1678085,46.7668379 16.1143179,46.8194574 C16.6634866,46.2932652 17.6798042,45.1637044 20.4791356,44.0130964 C23.2784671,42.8624883 27.7930585,41.7960711 35,41.7960711 Z M34.9144153,53.4424696 C34.8751888,53.4494859 34.8359632,53.4600091 34.8003025,53.4705332 C34.3759449,53.5652481 34.0763986,53.9405991 34.0870969,54.3685688 L34.0870969,66.5481759 L31.0916338,63.6014967 C30.8705405,63.3769878 30.5460318,63.2822729 30.2357871,63.3489242 C29.8934485,63.4085592 29.6188646,63.6541162 29.5225816,63.9803555 C29.4262986,64.3101033 29.5261474,64.6608985 29.7793356,64.8924228 L34.229738,69.2422825 C34.2475679,69.2703461 34.2653988,69.2984097 34.2867945,69.3264733 L34.3438509,69.3826006 C34.3866433,69.424696 34.4365681,69.4632837 34.486492,69.494855 L35,70 L35.513508,69.494855 C35.5883943,69.4387278 35.6561491,69.3720765 35.7132055,69.2984097 L40.2206644,64.8924228 C40.5843997,64.5346122 40.5843997,63.9593082 40.2206644,63.6014967 C39.85693,63.2436861 39.2721015,63.2436861 38.9083662,63.6014967 L35.9129031,66.5481759 L35.9129031,54.3685688 C35.9236014,54.1089808 35.8166201,53.859916 35.6276209,53.684518 C35.4350558,53.5056132 35.1747351,53.4179137 34.9144153,53.4424696 Z" id="ic_nav_end_call"></path>
            </g>
        </g>
    </g>
</svg>
