<?xml version="1.0" encoding="UTF-8"?>
<svg width="48px" height="48px" viewBox="0 0 48 48" version="1.1" xmlns="http://www.w3.org/2000/svg" xmlns:xlink="http://www.w3.org/1999/xlink">
    <!-- Generator: Sketch 47.1 (45422) - http://www.bohemiancoding.com/sketch -->
    <title>ic_toolbar_speak_boost</title>
    <desc>Created with Sketch.</desc>
    <defs></defs>
    <g id="Page-1" stroke="none" stroke-width="1" fill="none" fill-rule="evenodd">
        <g id="whipple_UI_02_1a" transform="translate(-66.000000, -546.000000)" fill-rule="nonzero" fill="#FFFFFF">
            <g id="Tool-Bar" transform="translate(50.000000, 170.000000)">
                <g id="ic-speak-boost" transform="translate(0.000000, 352.000000)">
                    <path d="M39.04,24 L39.04,33.6 C39.0362502,33.945 39.2162502,34.2675005 39.5162502,34.4437498 C39.8162502,34.6162502 40.1837498,34.6162502 40.4837498,34.4437498 C40.7837498,34.2675005 40.9637498,33.945 40.96,33.6 L40.96,26.01 C52.7087498,26.5237498 62.08,36.1237498 62.08,48 C62.08,60.2062502 52.2062502,70.08 40,70.08 C27.7937498,70.08 17.92,60.2062502 17.92,48 C17.92,41.8987498 20.3762502,36.3975005 24.37,32.4 C24.655,32.1675005 24.7862502,31.7962502 24.7037498,31.4362502 C24.6212502,31.08 24.34,30.7987498 23.9837498,30.7162502 C23.6237498,30.6337498 23.2525005,30.765 23.02,31.05 C18.6812502,35.3925005 16,41.3812502 16,48 C16,61.245 26.755,72 40,72 C53.245,72 64,61.245 64,48 C64,34.755 53.245,24 40,24 L39.04,24 Z M27.97,35.97 C27.97,35.97 36.835,48.915 37.96,50.04 C39.085,51.165 40.915,51.165 42.04,50.04 C43.165,48.915 43.165,47.085 42.04,45.96 C40.915,44.835 27.97,35.97 27.97,35.97 Z" id="ic_toolbar_speak_boost"></path>
                </g>
            </g>
        </g>
    </g>
</svg>
