<?xml version="1.0" encoding="UTF-8"?>
<svg width="30px" height="45px" viewBox="0 0 30 45" version="1.1" xmlns="http://www.w3.org/2000/svg" xmlns:xlink="http://www.w3.org/1999/xlink">
    <!-- Generator: Sketch 47.1 (45422) - http://www.bohemiancoding.com/sketch -->
    <title>ic_toolbar_finger</title>
    <desc>Created with Sketch.</desc>
    <defs></defs>
    <g id="Page-1" stroke="none" stroke-width="1" fill="none" fill-rule="evenodd">
        <g id="whipple_UI_02_1a" transform="translate(-75.000000, -188.000000)" fill-rule="nonzero" fill="#FFFFFF">
            <g id="Tool-Bar" transform="translate(50.000000, 170.000000)">
                <g id="ic-finger">
                    <path d="M47.0004103,18 C46.0630176,18 45.0865674,18.3171708 44.313218,18.9782609 C43.5398696,19.639351 43.0008683,20.6749321 43.0008683,21.9130435 L43.0008683,34.2330163 C42.4228095,33.9043823 41.7666346,33.6521739 41.0010973,33.6521739 C39.7551459,33.6521739 38.7122973,34.1833392 38.0326872,34.9361413 C37.8569263,35.1310295 37.7553749,35.3641304 37.6264837,35.578125 C36.9624977,35.0316743 36.1071267,34.6304348 35.0017842,34.6304348 C33.6269417,34.6304348 32.4981649,35.4596635 31.877142,36.5563859 C31.728722,36.8200575 31.6740403,37.1486925 31.5646778,37.4429348 C30.9085029,36.9576254 30.0921904,36.5869565 29.0024712,36.5869565 C27.4049981,36.5869565 26.2488805,37.5155403 25.6903505,38.5434783 C25.1318204,39.5714162 25.0029292,40.6757817 25.0029292,41.4782609 L25.0029292,42.3036685 C24.9990236,42.3533455 24.9990236,42.4068447 25.0029292,42.4565217 L25.0029292,54.1956522 C25.0029292,59.0449216 29.0454353,63 34.0018987,63 L44.4694501,63 C47.0082224,63 49.3595152,61.6548913 50.5937488,59.484375 L53.8746232,53.7065217 C53.8746232,53.6950575 53.8746232,53.6874153 53.8746232,53.6759511 C54.3003554,52.8467224 54.97606,51.1194805 54.9994943,49.2126359 C55.0268352,46.7860901 53.9410216,45.1085263 52.8122448,44.1379076 C52.2459037,43.6525983 51.6795625,43.3430707 51.2186773,43.1290761 C51.1054092,43.0755779 51.1015037,43.079399 50.9999523,43.0373641 L50.9999523,21.8519022 C50.9999523,20.6405403 50.460952,19.593495 49.6876026,18.9476902 C48.9142542,18.3018854 47.937803,18 47.0004103,18 Z M47.0004103,19.9565217 C47.4612955,19.9565217 48.0002958,20.1323035 48.3752529,20.4456522 C48.7502099,20.7590018 49.0001813,21.1831689 49.0001813,21.8519022 L49.0001813,42.3342391 L45.0006393,41.0502717 L45.0006393,37.5652174 C45.0084514,37.5040761 45.0084514,37.4429348 45.0006393,37.3817935 L45.0006393,21.9130435 C45.0006393,21.1946332 45.2506107,20.7628229 45.6255677,20.4456522 C46.0005248,20.1284814 46.5395261,19.9565217 47.0004103,19.9565217 Z M41.0010973,35.6086957 C41.7002362,35.6086957 42.1337806,35.8494398 42.4696791,36.2201087 C42.758709,36.5411005 42.9539986,36.984375 43.0008683,37.3817935 C42.9969627,37.4238284 42.9969627,37.4620412 43.0008683,37.5040761 C43.0008683,37.5231825 43.0008683,37.546111 43.0008683,37.5652174 L43.0008683,40.408288 L40.8761116,39.7357337 C40.2902417,39.5484887 39.7082763,39.5026327 39.1263119,39.5523098 C39.0833479,39.5561309 39.0442903,39.5790593 39.0013263,39.5828804 L39.0013263,37.5652174 C39.0091384,37.5040761 39.0091384,37.4429348 39.0013263,37.3817935 C39.0481959,36.984375 39.2434865,36.5411005 39.5325154,36.2201087 C39.868415,35.8494398 40.3019583,35.6086957 41.0010973,35.6086957 Z M35.0017842,36.5869565 C35.9079305,36.5869565 36.2867931,36.8315217 36.5641053,37.1677989 C36.8414176,37.5040761 37.0015552,38.0237772 37.0015552,38.5434783 L37.0015552,40.2860054 C36.1891483,40.8095276 35.5446911,41.5814371 35.2205092,42.5482337 C34.7869648,43.8398442 35.0252195,45.1773098 35.7204519,46.2472826 C35.4978214,46.3275303 35.2556612,46.3695652 35.0017842,46.3695652 C33.8847251,46.3695652 33.0020132,45.5059448 33.0020132,44.4130435 L33.0020132,40.6222826 C33.0059188,40.5802477 33.0059188,40.5420349 33.0020132,40.5 C33.0020132,39.2733528 33.248079,38.1766304 33.6269417,37.5040761 C34.0058043,36.8315217 34.3768558,36.5869565 35.0017842,36.5869565 Z M29.0024712,38.5434783 C30.0375087,38.5434783 30.4202778,38.8186141 30.6585316,39.1243207 C30.8967853,39.4300272 31.0022422,39.9306218 31.0022422,40.5 C31.0022422,40.5305707 31.0022422,40.5611413 31.0022422,40.591712 L31.0022422,45.3913043 C31.0022422,46.4842057 30.1195313,47.3478261 29.0024712,47.3478261 C27.8854121,47.3478261 27.0027002,46.4842057 27.0027002,45.3913043 L27.0027002,42.4565217 C27.0027002,42.4259511 27.0027002,42.3953804 27.0027002,42.3648098 L27.0027002,41.4782609 C27.0027002,40.9088827 27.1237803,40.0452613 27.4401501,39.4605978 C27.7565199,38.8759343 28.1002305,38.5434783 29.0024712,38.5434783 Z M39.282544,41.4782609 C39.6067259,41.4515113 39.9543421,41.4935462 40.2824296,41.6005435 L49.6251098,44.5964674 C49.6446385,44.6079316 49.6680738,44.6193959 49.6876026,44.627038 C49.718849,44.6385023 49.7500954,44.6499665 49.7813419,44.6576087 C49.9258563,44.6996436 50.0977116,44.7416785 50.3750239,44.8716033 C50.7109234,45.0282776 51.1093148,45.2690217 51.4998951,45.6052989 C52.2849612,46.2778533 53.0231587,47.2943279 52.9997233,49.1820652 C52.9841001,50.6188859 52.3669838,52.2544158 52.0935771,52.7894022 L48.8439492,58.5366848 C47.9612383,60.091967 46.2856481,61.0434783 44.4694501,61.0434783 L34.0018987,61.0434783 C30.1234368,61.0434783 27.0027002,57.9902341 27.0027002,54.1956522 L27.0027002,48.7540761 C27.5963822,49.0941743 28.2681803,49.3043478 29.0024712,49.3043478 C30.4671475,49.3043478 31.7443452,48.5056898 32.4395776,47.3478261 C33.1387166,47.9363116 34.0136164,48.326087 35.0017842,48.326087 C35.8063801,48.326087 36.5601998,48.0891649 37.1890338,47.6841033 C37.466346,47.8445997 37.7788102,47.9783455 38.09518,48.0815217 L44.1882323,50.0380435 L45.0631321,52.544837 C45.1295305,52.9269701 45.4185604,53.2326766 45.797423,53.3282097 C46.1801922,53.4237437 46.5824892,53.2938179 46.828555,52.9919325 C47.0746208,52.690048 47.1175849,52.2773442 46.9379175,51.9334239 L45.9380319,48.9680707 C45.8481982,48.6700073 45.6138501,48.4292632 45.3131035,48.326087 L38.7201085,46.216712 C38.5170067,46.1517496 38.3295282,46.0447523 38.1576729,45.9415761 C38.0404993,45.6779045 37.8139622,45.4753741 37.5327444,45.3913043 C37.0406138,44.7798913 36.8570408,43.9659479 37.1265409,43.1596467 C37.4507228,42.1928501 38.3099994,41.5546875 39.282544,41.4782609 Z" id="ic_toolbar_finger"></path>
                </g>
            </g>
        </g>
    </g>
</svg>