<?xml version="1.0" encoding="UTF-8"?>
<svg width="39px" height="47px" viewBox="0 0 39 47" version="1.1" xmlns="http://www.w3.org/2000/svg" xmlns:xlink="http://www.w3.org/1999/xlink">
    <!-- Generator: Sketch 47.1 (45422) - http://www.bohemiancoding.com/sketch -->
    <title>ic_toolbar_afk</title>
    <desc>Created with Sketch.</desc>
    <defs></defs>
    <g id="Page-1" stroke="none" stroke-width="1" fill="none" fill-rule="evenodd">
        <g id="whipple_UI_02_1a" transform="translate(-71.000000, -665.000000)" fill-rule="nonzero" fill="#FFFFFF">
            <g id="Tool-Bar" transform="translate(50.000000, 170.000000)">
                <g id="ic-AFK" transform="translate(0.000000, 480.000000)">
                    <path d="M41.5102796,15.000107 C40.9450044,15.0120753 40.4919824,15.4748413 40.5,16.037341 C40.5,19.1570224 39.301295,20.0865434 37.7698399,21.4548947 C36.2383838,22.8192559 34.3581414,24.6264365 34.3581414,28.2926602 C34.3541327,28.6596814 34.5465669,29.0027671 34.8672906,29.1902663 C35.1880142,29.3737774 35.5809002,29.3737774 35.9016239,29.1902663 C36.2223476,29.0027671 36.4147818,28.6596814 36.410773,28.2926602 C36.410773,25.2447878 37.6014594,24.3471817 39.1409331,22.9748413 C40.6804068,21.6025009 42.5526316,19.7634054 42.5526316,16.037341 C42.5566404,15.7620753 42.4483969,15.4947878 42.2519529,15.2993094 C42.0555099,15.1038309 41.7869035,14.9961179 41.5102796,15.000107 Z M46.6498772,20.10649 C46.0846009,20.1184583 45.6315789,20.5812243 45.6395976,21.143724 C45.6395976,23.1384049 44.9500416,23.6131392 43.9277346,24.5187245 C42.9054276,25.4243089 41.5263158,26.7727136 41.5263158,29.3139368 C41.522307,29.680958 41.7147412,30.0240437 42.0354649,30.2115429 C42.3561886,30.395054 42.7490746,30.395054 43.0697983,30.2115429 C43.3905219,30.0240437 43.5829562,29.680958 43.5789474,29.3139368 C43.5789474,27.3990432 44.2564759,26.9602139 45.2908103,26.0426602 C46.3251437,25.1290966 47.6922291,23.7447878 47.6922291,21.143724 C47.6962379,20.8684583 47.5879934,20.6011708 47.3915504,20.4056923 C47.1951074,20.2102139 46.9265011,20.1025009 46.6498772,20.10649 Z M26.1315789,32.3777666 C25.5663037,32.3777666 25.1052632,32.8365434 25.1052632,33.3990432 L25.1052632,46.6756389 C25.1052632,50.0187245 26.7369452,52.9828195 29.2385899,54.8458517 L22.0263158,54.8458517 C21.4610406,54.8458517 21,55.3046285 21,55.8671283 C21,57.678299 22.0463608,59.2181921 23.4094364,60.2833519 C24.7725121,61.3445216 26.4883838,61.9947878 28.1842105,61.9947878 L50.7631579,61.9947878 C52.4589846,61.9947878 54.1748563,61.3445216 55.537932,60.2833519 C56.9010077,59.2181921 57.9473684,57.678299 57.9473684,55.8671283 C57.9473684,55.3046285 57.4863279,54.8458517 56.9210526,54.8458517 L49.7087785,54.8458517 C51.9658717,53.1623415 53.513364,50.5892025 53.7939967,47.6490432 C56.0550987,47.4256389 57.7108344,46.4123415 58.6649879,44.8844157 C59.7193673,43.1849472 59.9719364,41.0267027 59.9839638,38.680958 C59.9879726,38.6729798 59.9879726,38.6650006 59.9879726,38.6570224 C59.9959912,38.6051599 60,38.5572876 60,38.5054261 C60,36.8259051 58.6088608,35.4415963 56.9210526,35.4415963 L53.8421053,35.4415963 L53.8421053,33.3990432 C53.8421053,32.8365434 53.3810647,32.3777666 52.8157895,32.3777666 L26.1315789,32.3777666 Z M27.1578947,34.4203197 L51.7894737,34.4203197 L51.7894737,46.5040961 C51.7734375,46.6038309 51.7694287,46.7035647 51.7854649,46.8032985 C51.7133016,51.2673945 48.0811063,54.8458517 43.5789474,54.8458517 L35.3684211,54.8458517 C30.8221633,54.8458517 27.1578947,51.1995756 27.1578947,46.6756389 L27.1578947,34.4203197 Z M53.8421053,37.4841495 L56.9210526,37.4841495 C57.5023641,37.4841495 57.9473684,37.9269689 57.9473684,38.5054261 C57.9473684,40.7673945 57.6506995,42.6344157 56.9210526,43.8072876 C56.3076688,44.7886711 55.4417149,45.4110115 53.8421053,45.5905325 L53.8421053,37.4841495 Z M23.3493015,56.8884049 L55.5980679,56.8884049 C55.3374792,57.534682 54.9325658,58.1570224 54.2710734,58.6756389 C53.2648026,59.4575538 51.901727,59.9522346 50.7631579,59.9522346 L28.1842105,59.9522346 C27.0456414,59.9522346 25.6825658,59.4575538 24.676295,58.6756389 C24.0148026,58.1570224 23.6098892,57.534682 23.3493015,56.8884049 Z M30.039,44.9587878 L32.074,44.9587878 L31.084,42.0767878 L31.062,42.0767878 L30.039,44.9587878 Z M30.204,40.1407878 L31.975,40.1407878 L34.912,47.9947878 L33.119,47.9947878 L32.525,46.2457878 L29.588,46.2457878 L28.972,47.9947878 L27.234,47.9947878 L30.204,40.1407878 Z M36.294,40.1407878 L36.294,47.9947878 L38.021,47.9947878 L38.021,44.7497878 L41.31,44.7497878 L41.31,43.4077878 L38.021,43.4077878 L38.021,41.5927878 L41.816,41.5927878 L41.816,40.1407878 L36.294,40.1407878 Z M43.517,40.1407878 L43.517,47.9947878 L45.244,47.9947878 L45.244,45.4647878 L46.234,44.4637878 L48.599,47.9947878 L50.766,47.9947878 L47.4,43.2427878 L50.469,40.1407878 L48.313,40.1407878 L45.244,43.3967878 L45.244,40.1407878 L43.517,40.1407878 Z" id="ic_toolbar_afk"></path>
                </g>
            </g>
        </g>
    </g>
</svg>
