<?xml version="1.0" encoding="UTF-8"?>
<svg width="200px" height="56px" viewBox="0 0 200 56" version="1.1" xmlns="http://www.w3.org/2000/svg" xmlns:xlink="http://www.w3.org/1999/xlink">
    <!-- Generator: Sketch 47.1 (45422) - http://www.bohemiancoding.com/sketch -->
    <title>whipple_logo_neu</title>
    <desc>Created with Sketch.</desc>
    <defs>
        <polygon id="path-1" points="1.01012625e-19 0.28698427 1.01012625e-19 23.7094562 32.6463354 23.7094562 32.6463354 0.28698427"></polygon>
        <polygon id="path-3" points="0.351614907 32.7191011 20.1204369 32.7191011 20.1204369 0.459402804 0.351614907 0.459402804 0.351614907 32.7191011"></polygon>
        <polygon id="path-5" points="0.585093168 32.7191011 20.3532941 32.7191011 20.3532941 0.459402804 0.585093168 0.459402804"></polygon>
        <polygon id="path-7" points="0 55.4336449 199.90559 55.4336449 199.90559 -6.29213483e-05 0 -6.29213483e-05"></polygon>
    </defs>
    <g id="Page-1" stroke="none" stroke-width="1" fill="none" fill-rule="evenodd">
        <g id="whipple_UI_02_1a" transform="translate(-1220.000000, -16.000000)">
            <g id="whipple_logo_neu" transform="translate(1220.000000, 16.000000)">
                <path d="M57.2720497,14.8493753 C58.0900621,13.398409 59.9142857,12.894409 61.347205,13.7224539 C62.778882,14.5517573 63.2770186,16.3997573 62.4590062,17.8507236 C61.6403727,19.3016899 59.8167702,19.8056899 58.384472,18.9770157 C56.9515528,18.1483416 56.4540373,16.3003416 57.2720497,14.8493753 Z" id="Fill-1" fill="#4ABAC4"></path>
                <g id="Group-5" transform="translate(0.000000, 23.343757)">
                    <mask id="mask-2" fill="white">
                        <use xlink:href="#path-1"></use>
                    </mask>
                    <g id="Clip-4"></g>
                    <path d="M17.7382609,0.28698427 C18.0053416,1.79709663 18.3537888,3.40536629 18.7848447,5.11053483 C19.2152795,6.81633258 19.6904348,8.5529618 20.2096894,10.319164 C20.7289441,12.0853663 21.2798758,13.8289169 21.8631056,15.5517034 C22.4457143,17.2744899 23.0363975,18.8909393 23.6345342,20.4023101 C24.1438509,19.2552539 24.6823602,17.8596584 25.2506832,16.2155236 C25.8190062,14.5713888 26.3879503,12.836018 26.9562733,11.0106697 C27.5245963,9.18595056 28.0556522,7.34298427 28.5488199,5.4824 C29.0419876,3.62181573 29.4525466,1.88959101 29.7823602,0.28698427 L32.6463354,0.28698427 C31.570559,4.88779326 30.3960248,9.08842247 29.1245963,12.8907596 C27.8525466,16.6930966 26.4531677,20.2997483 24.9270807,23.7094562 L22.2320497,23.7094562 C21.7798758,22.6423101 21.3059627,21.4530966 20.8103106,20.1399281 C20.3140373,18.828018 19.8034783,17.4242427 19.2780124,15.9298607 C18.7531677,14.4367371 18.2438509,12.8681079 17.7525466,11.223973 C17.2606211,9.5798382 16.7922981,7.89732135 16.3457143,6.17642247 C15.8997516,7.90109663 15.4320497,9.58675955 14.9419876,11.2346697 C14.4525466,12.8838382 13.9463354,14.4556135 13.423354,15.9499955 C12.8997516,17.4450067 12.3922981,18.848782 11.8985093,20.1619506 C11.4053416,21.4757483 10.9363975,22.6580404 10.4910559,23.7094562 L7.69602484,23.7094562 C6.11962733,20.1745348 4.72024845,16.561591 3.50347826,12.8844674 C2.23701863,9.07898427 1.06931677,4.87961348 -0.000248447205,0.28698427 L3.08546584,0.28698427 C3.41465839,1.88770337 3.82645963,3.61678202 4.32024845,5.4729618 C4.81403727,7.32977079 5.3463354,9.17147865 5.9152795,10.9974562 C6.48360248,12.8240629 7.06,14.5531416 7.64198758,16.1859506 C8.22521739,17.8181303 8.77055901,19.2086921 9.27987578,20.3563775 C9.85068323,18.8531865 10.4227329,17.2386247 10.996646,15.5145798 C11.5693168,13.7905348 12.1084472,12.052018 12.612795,10.2990292 C13.1165217,8.54666966 13.5904348,6.8169618 14.0351553,5.10990562 C14.4798758,3.40222022 14.8786335,1.79457978 15.2332919,0.28698427 L17.7382609,0.28698427 Z" id="Fill-3" fill="#92278F" mask="url(#mask-2)"></path>
                </g>
                <path d="M35.2399379,47.0529618 L35.2399379,12.4411865 L38.1467702,11.8975461 L38.1467702,24.3100404 C39.0908696,23.9507596 40.0635404,23.6707596 41.0529814,23.4719281 C42.0256522,23.2775011 43.014472,23.1787146 44.0051553,23.1780854 C45.5312422,23.1302652 47.0517391,23.392018 48.477205,23.9476135 C49.6051553,24.4126022 50.5927329,25.1701753 51.3393168,26.144827 C52.0821739,27.1591191 52.593354,28.3275685 52.8374534,29.5658607 C53.1318634,31.011164 53.2740994,32.4841528 53.2622981,33.9596584 L53.2622981,47.0529618 L50.3554658,47.0529618 L50.3554658,34.9116584 C50.3759627,33.4997034 50.2635404,32.0890067 50.0200621,30.6984449 C49.8529814,29.6910742 49.4716149,28.7321528 48.9020497,27.889636 C48.3821739,27.1660404 47.656087,26.6205124 46.8219255,26.3266697 C45.7685093,25.979973 44.6647826,25.8195236 43.5579503,25.8509843 C43.0113665,25.8541303 42.4654037,25.8994337 41.9256522,25.9868944 C41.3442857,26.0775011 40.7995652,26.1756584 40.293354,26.2807371 C39.7852795,26.3870742 39.3312422,26.5003326 38.9287578,26.6205124 C38.6622981,26.6935011 38.4008075,26.7841079 38.1467702,26.8929618 L38.1467702,47.0529618 L35.2399379,47.0529618 Z" id="Fill-6" fill="#92278F"></path>
                <polygon id="Fill-8" fill="#92278F" points="61.3554037 47.0529618 58.4485714 47.0529618 58.4485714 23.6304899 61.3560248 23.6304899"></polygon>
                <g id="Group-12" transform="translate(66.459627, 22.714544)">
                    <mask id="mask-4" fill="white">
                        <use xlink:href="#path-3"></use>
                    </mask>
                    <g id="Clip-11"></g>
                    <path d="M3.25906832,20.1250157 C3.58080745,20.3729258 3.9168323,20.5994427 4.2652795,20.8045663 C4.71559006,21.0700944 5.18701863,21.2972404 5.67397516,21.4841169 C6.24043478,21.7049708 6.8236646,21.8786337 7.41807453,22.0051056 C8.06465839,22.1435326 8.72490683,22.2114876 9.3857764,22.2096 C10.6267702,22.2498697 11.8609317,21.9937798 12.9857764,21.4614652 C13.9236646,20.9901843 14.7304969,20.2892404 15.3336025,19.4228135 C15.9540994,18.504791 16.394472,17.4741393 16.6304969,16.3874876 C16.9044099,15.1762517 17.0391925,13.9373303 17.0329814,12.6952629 C17.0329814,9.61463371 16.2727329,7.25130787 14.752236,5.60528539 C13.1845342,3.93912809 10.9845342,3.03935281 8.71496894,3.13625169 C7.55658385,3.11926292 6.39819876,3.18721798 5.24913043,3.34011685 C4.57583851,3.43009438 3.91062112,3.57418427 3.25906832,3.77049888 L3.25906832,20.1250157 Z M3.25906832,32.7193528 L0.351614907,32.7193528 L0.351614907,1.73184719 C1.43546584,1.37256629 2.5410559,1.08501573 3.66093168,0.871083146 C5.34354037,0.570319101 7.05099379,0.433779775 8.75906832,0.463352809 C10.3410559,0.441959551 11.9124845,0.726364045 13.3882609,1.30146517 C14.7398137,1.83755506 15.9609317,2.66434157 16.9652795,3.72582472 C17.9950932,4.83261124 18.7863975,6.14389213 19.2913665,7.57598202 C19.8646584,9.21885843 20.1454037,10.9529708 20.1186957,12.6952629 C20.1354658,14.3601618 19.9019255,16.0175101 19.4249068,17.6106787 C19.0087578,19.0194876 18.3168323,20.3288809 17.3907453,21.4614652 C16.4932298,22.5361618 15.3702484,23.3950382 14.1037888,23.9758022 C12.7031677,24.6012404 11.1845342,24.9101843 9.65409938,24.8818697 C8.30627329,24.9108135 6.96465839,24.6880719 5.6963354,24.2249708 C4.83298137,23.9204315 4.01372671,23.5020045 3.25906832,22.9791281 L3.25906832,32.7193528 Z" id="Fill-10" fill="#92278F" mask="url(#mask-4)"></path>
                </g>
                <g id="Group-15" transform="translate(90.062112, 22.714544)">
                    <mask id="mask-6" fill="white">
                        <use xlink:href="#path-5"></use>
                    </mask>
                    <g id="Clip-14"></g>
                    <path d="M3.49254658,20.1250157 C3.8136646,20.3729258 4.14968944,20.5994427 4.49813665,20.8045663 C4.94906832,21.0700944 5.41987578,21.2972404 5.9068323,21.4841169 C6.47391304,21.7049708 7.05652174,21.8786337 7.65093168,22.0051056 C8.29751553,22.1435326 8.95776398,22.2114876 9.61863354,22.2096 C10.8596273,22.2498697 12.0937888,21.9937798 13.2192547,21.4614652 C14.1565217,20.9895551 14.963354,20.2892404 15.5664596,19.4228135 C16.1869565,18.504791 16.6273292,17.4741393 16.863354,16.3874876 C17.1372671,15.1768809 17.2726708,13.9373303 17.2664596,12.6952629 C17.2664596,9.61463371 16.5055901,7.25130787 14.9857143,5.60528539 C13.4180124,3.93912809 11.2180124,3.03935281 8.94782609,3.13625169 C7.78944099,3.11926292 6.6310559,3.18721798 5.4826087,3.34011685 C4.80869565,3.43009438 4.14347826,3.57418427 3.49254658,3.77049888 L3.49254658,20.1250157 Z M3.49254658,32.7193528 L0.585093168,32.7193528 L0.585093168,1.73184719 C1.66832298,1.37256629 2.77453416,1.08501573 3.89440994,0.871083146 C5.57701863,0.570319101 7.28385093,0.433779775 8.99254658,0.463352809 C10.573913,0.441330337 12.1453416,0.725734831 13.621118,1.30146517 C14.9726708,1.83755506 16.1937888,2.66434157 17.1981366,3.72582472 C18.2279503,4.83261124 19.0192547,6.14326292 19.5242236,7.57598202 C20.0975155,9.21885843 20.3782609,10.9529708 20.3515528,12.6952629 C20.368323,14.3601618 20.1347826,16.0175101 19.657764,17.6106787 C19.2416149,19.0194876 18.5503106,20.3288809 17.6236025,21.4614652 C16.726087,22.5361618 15.6031056,23.3950382 14.336646,23.9758022 C12.9360248,24.6012404 11.4180124,24.9101843 9.88695652,24.8818697 C8.53913043,24.9108135 7.19751553,24.6880719 5.92919255,24.2249708 C5.06583851,23.9204315 4.24658385,23.5013753 3.49192547,22.9791281 L3.49254658,32.7193528 Z" id="Fill-13" fill="#92278F" mask="url(#mask-6)"></path>
                </g>
                <path d="M120.341615,47.4603775 C119.471429,47.447164 118.606832,47.3181753 117.769565,47.0759281 C117.087578,46.8764674 116.459627,46.5197034 115.936646,46.0333213 C115.422981,45.5318382 115.03913,44.9089169 114.818012,44.2218157 C114.541615,43.3201528 114.413043,42.3788494 114.438509,41.4350292 L114.438509,12.4415011 L117.345342,11.8972315 L117.345342,41.3444225 C117.32795,41.9327371 117.396273,42.5204225 117.546584,43.0892315 C117.654658,43.4837483 117.863354,43.8424 118.150932,44.1305798 C118.449068,44.4049169 118.809938,44.5987146 119.201242,44.6968719 C119.708075,44.8340404 120.224224,44.9397483 120.744099,45.0139955 L120.341615,47.4603775 Z" id="Fill-16" fill="#92278F"></path>
                <path d="M138.676149,33.461573 C138.615901,31.015191 138.049441,29.1124494 136.97677,27.7539775 C135.864969,26.3753708 134.169938,25.618427 132.41528,25.7146966 C131.446957,25.6977079 130.488571,25.9147865 129.620248,26.3489438 C128.803478,26.7698876 128.074907,27.3468764 127.473665,28.0478202 C126.851925,28.7758202 126.367453,29.6126742 126.04323,30.5168539 C125.697267,31.4625618 125.494161,32.4548315 125.438882,33.461573 L138.676149,33.461573 Z M122.264348,35.3190112 C122.22646,33.4905169 122.522112,31.6702022 123.135155,29.9505618 C123.649441,28.539236 124.423354,27.2399101 125.417143,26.122427 C126.310311,25.1282697 127.409689,24.3467865 128.637019,23.8346067 C129.82087,23.3413034 131.089814,23.0871011 132.37118,23.0877303 C134.92646,22.9713258 137.403478,23.9982022 139.146335,25.8965393 C140.830186,27.7690787 141.671801,30.6533933 141.673043,34.5494831 C141.673043,34.7911011 141.664969,35.0327191 141.650062,35.2737079 C141.635776,35.5159551 141.612795,35.7424719 141.583602,35.9532584 L125.350062,35.9532584 C125.438882,38.8231011 126.139503,41.0278652 127.451925,42.5681798 C128.763727,44.1078652 130.850062,44.8780225 133.712795,44.8786517 C134.979876,44.9189213 136.246335,44.7660225 137.469317,44.425618 C138.156273,44.2160899 138.828944,43.9587416 139.481739,43.6548315 L140.018385,46.1918202 C139.266832,46.5599101 138.480497,46.8487191 137.670559,47.0532135 C136.350062,47.4068315 134.988571,47.5748315 133.623354,47.5515506 C131.851925,47.5974831 130.089193,47.2897978 128.435776,46.6448539 C127.07677,46.0936629 125.866211,45.2240899 124.902857,44.1078652 C123.958758,42.9828315 123.27118,41.6602247 122.890435,40.2350562 C122.458758,38.6337079 122.248199,36.9788764 122.264348,35.3190112 L122.264348,35.3190112 Z" id="Fill-18" fill="#92278F"></path>
                <polyline id="Fill-20" fill="#4ABAC4" points="193.691739 12.9749483 195.704161 10.9967011 197.183665 12.4954876 199.905404 9.73764494 194.224658 3.98285843 191.502919 6.74070112 192.981801 8.23948764 191.029006 10.2775101"></polyline>
                <mask id="mask-8" fill="white">
                    <use xlink:href="#path-7"></use>
                </mask>
                <g id="Clip-23"></g>
                <polygon id="Fill-22" fill="#4ABAC4" mask="url(#mask-8)" points="172.22795 3.8368809 183.589441 3.8368809 183.589441 -6.29213483e-05 172.22795 -6.29213483e-05"></polygon>
                <path d="M169.801801,15.256791 L167.079441,18.0146337 L174.240311,25.2682067 C174.158323,25.5752629 174.121056,25.8974202 174.121056,26.2271281 C174.121056,28.3475775 175.815466,30.0640719 177.908634,30.0640719 C180.001801,30.0640719 181.69559,28.3475775 181.69559,26.2271281 C181.69559,24.1066787 180.001801,22.3901843 177.908634,22.3901843 C177.583168,22.3901843 177.265155,22.4279371 176.961429,22.510364 L169.801801,15.256791 Z" id="Fill-24" fill="#4ABAC4" mask="url(#mask-8)"></path>
                <path d="M177.855093,5.38172584 C166.422795,5.38046742 157.15323,14.7683326 157.151988,26.3502652 C157.151366,29.8084225 157.994845,33.2124674 159.607888,36.2610067 L155.470621,43.5208719 L153.319068,47.2961528 L157.622174,47.2961528 C157.622174,47.2961528 177.504161,47.3288719 177.855093,47.3288719 C189.290497,47.3288719 198.561304,37.9397483 198.561304,26.3552989 C198.561304,14.7708494 189.290497,5.3798382 177.855093,5.38172584 M177.855093,7.89857978 C187.917205,7.89857978 196.074348,16.1620404 196.074348,26.3552989 C196.074348,36.5485573 187.917205,44.812018 177.855093,44.812018 C177.50354,44.812018 157.622174,44.7792989 157.622174,44.7792989 L162.48118,36.252827 C157.083043,27.6539955 159.587391,16.2495011 168.076211,10.7810067 C170.999193,8.89777079 174.391739,7.89795056 177.855093,7.89857978" id="Fill-25" fill="#92278F" mask="url(#mask-8)"></path>
                <polygon id="Fill-26" fill="#92278F" mask="url(#mask-8)" points="167.079503 47.3287461 168.793789 47.3287461 168.793789 44.7949034 167.079503 44.7949034"></polygon>
            </g>
        </g>
    </g>
</svg>
