<?xml version="1.0" encoding="UTF-8"?>
<svg width="35px" height="40px" viewBox="0 0 35 40" version="1.1" xmlns="http://www.w3.org/2000/svg" xmlns:xlink="http://www.w3.org/1999/xlink">
    <!-- Generator: Sketch 47.1 (45422) - http://www.bohemiancoding.com/sketch -->
    <title>ic_toolbar_thumbs_down</title>
    <desc>Created with Sketch.</desc>
    <defs>
        <path d="M39.1567568,20 C38.5986493,20 37.9932438,20.1374405 37.4918919,20.5308057 C36.8250003,21.0568723 36.4324324,21.8767773 36.3189189,22.8436019 C36.3189189,22.8578202 36.3189189,22.8672983 36.3189189,22.8815166 C35.9783784,26.4454976 34.7391898,28.3080566 33.1783784,29.8578199 C31.6175682,31.4075832 29.6689195,32.5260667 28.1459459,34.3317536 C28.1317565,34.3317536 28.1222976,34.3317536 28.1081081,34.3317536 C26.8878384,35.8104265 25.9608114,37.3507106 25.1189189,38.3886256 C24.2770276,39.4265406 23.6858105,39.8672986 23,39.8672986 L23,42.2938389 C24.7358111,42.2938389 26.0081081,41.1421798 27.0108108,39.9052133 C28.0135135,38.6682467 28.9216216,37.1990518 30,35.8862559 C31.1445952,34.5450234 33.055406,33.4123229 34.8810811,31.6018957 C36.7067574,29.7914698 38.3432432,27.2037915 38.7405405,23.1469194 C38.7405405,23.1327011 38.7405405,23.1232231 38.7405405,23.1090047 C38.8114868,22.6208528 38.9391898,22.4502367 38.9675676,22.4265403 C39.000676,22.4028439 39.0479727,22.3507109 39.2702703,22.3886256 C39.7148655,22.469194 40.5378378,23.1042657 40.8216216,23.6018957 C40.8358111,23.6018957 40.84527,23.6018957 40.8594595,23.6018957 C41.4317565,24.5734594 41.3844598,25.6492891 41.0108108,26.9763033 C40.6371619,28.3033175 39.9135135,29.7630332 39.2324324,31.1848341 C39.2182429,31.1990524 39.2087841,31.2085305 39.1945946,31.2227488 C38.5749997,32.601896 38.2250003,34.0947873 38.6648649,35.507109 C38.882433,36.2132698 39.3837838,36.9004745 40.1027027,37.2890995 C40.8216216,37.6777257 41.682433,37.7772515 42.6378378,37.6682464 C46.3364871,37.1753555 48.4601354,36.5687204 51.4540541,36.5687204 C53.0952706,36.5687204 53.6486486,37.6445501 53.6486486,38.0473934 C53.6486486,38.8151665 53.4216216,40.3981043 53.4216216,40.3981043 C53.3317565,40.9763039 53.6675676,41.530806 54.2162162,41.7251185 C54.2162162,41.7251185 55.5783784,42.132702 55.5783784,43.507109 C55.5783784,44.8104268 54.2918919,45.4407583 54.2918919,45.4407583 C53.8520273,45.6540281 53.5777024,46.1090044 53.6060814,46.5971564 C53.6297297,47.0853084 53.9466219,47.511848 54.4054054,47.6777251 C54.4054054,47.6777251 55.5783784,48.004739 55.5783784,49.3080569 C55.5783784,49.9289103 55.2189189,50.4028439 54.7459459,50.7867299 C54.272973,51.1706158 53.8,51.3175355 53.8,51.3175355 C53.4358111,51.450237 53.1567568,51.7535545 53.0527033,52.1279624 C52.9439192,52.5071093 53.0290538,52.9099526 53.2702703,53.2132701 C53.2702703,53.2132701 53.7621622,53.8720382 53.7621622,54.7677725 C53.7621622,55.0900474 53.7574327,55.3033172 53.6864865,55.4881517 C53.6155402,55.6729861 53.4878384,55.8957352 52.9675676,56.2085308 C51.927027,56.8388623 49.2358111,57.5734597 43.5837838,57.5734597 C36.0304057,57.5734597 32.6675676,56.8815172 30.3405405,56.2085308 C28.0135135,55.5355456 26.4432432,54.7677725 23,54.7677725 L23,57.1943128 C26.0979733,57.1943128 27.1810811,57.8341235 29.6972973,58.5592417 C32.2135135,59.2843599 35.8837838,60 43.5837838,60 C49.4344592,60 52.4425673,59.3270148 54.2162162,58.2559242 C55.1054054,57.7203795 55.6540541,57.042654 55.9189189,56.3601896 C56.1837838,55.6777251 56.1837838,55.0521327 56.1837838,54.7677725 C56.1837838,54.018958 55.9662168,53.4549766 55.7675676,52.9478673 C55.9945946,52.8104268 56.0087841,52.8483415 56.2594595,52.6445498 C57.0587835,51.995261 58,50.8720385 58,49.3080569 C58,48.004739 57.4135135,47.0947864 56.7891892,46.464455 C57.399324,45.7867296 58,44.8341232 58,43.507109 C58,41.4075826 56.7655408,40.4454982 55.8810811,39.943128 C55.9567568,39.4075832 56.0702703,38.8625592 56.0702703,38.0473934 C56.0702703,36.0236964 54.173649,34.1421801 51.4540541,34.1421801 C48.1621622,34.1421801 45.9108108,34.7677725 42.372973,35.2417062 C42.3540541,35.2417062 42.3540541,35.2417062 42.3351351,35.2417062 C41.7533781,35.2985782 41.3891892,35.2085305 41.2378378,35.1279621 C41.0817571,35.0426546 41.0391898,35.0047399 40.972973,34.7867299 C40.8358111,34.3459719 40.9587835,33.2559239 41.427027,32.2085308 C42.0749997,30.8483409 42.8885132,29.3175362 43.3567568,27.6587678 C43.8297297,25.9857823 43.9432432,24.0853087 42.9405405,22.3886256 C42.25473,21.1848347 41.0912159,20.2938395 39.6864865,20.0379147 C39.5114868,20.004739 39.3412165,20 39.1567568,20 Z" id="path-1"></path>
    </defs>
    <g id="Page-1" stroke="none" stroke-width="1" fill="none" fill-rule="evenodd">
        <g id="whipple_UI_02_1a" transform="translate(-73.000000, -430.000000)">
            <g id="Tool-Bar" transform="translate(50.000000, 170.000000)">
                <g id="ic-thumps-down" transform="translate(40.000000, 280.000000) scale(1, -1) translate(-40.000000, -280.000000) translate(0.000000, 240.000000)">
                    <mask id="mask-2" fill="white">
                        <use xlink:href="#path-1"></use>
                    </mask>
                    <use id="ic_toolbar_thumbs_down" fill="#FFFFFF" fill-rule="nonzero" xlink:href="#path-1"></use>
                </g>
            </g>
        </g>
    </g>
</svg>